<mxfile host="Electron" agent="Mozilla/5.0 (Windows NT 10.0; Win64; x64) AppleWebKit/537.36 (KHTML, like Gecko) draw.io/26.0.16 Chrome/132.0.6834.196 Electron/34.2.0 Safari/537.36" version="26.0.16">
  <diagram id="C5RBs43oDa-KdzZeNtuy" name="Page-1">
    <mxGraphModel dx="1313" dy="776" grid="1" gridSize="10" guides="1" tooltips="1" connect="1" arrows="1" fold="1" page="1" pageScale="1" pageWidth="827" pageHeight="1169" math="0" shadow="0">
      <root>
        <mxCell id="WIyWlLk6GJQsqaUBKTNV-0" />
        <mxCell id="WIyWlLk6GJQsqaUBKTNV-1" parent="WIyWlLk6GJQsqaUBKTNV-0" />
        <mxCell id="QHe8dvAFQJgyMEftRluh-0" value="게임 이름 : 오토 던전" style="rounded=0;whiteSpace=wrap;html=1;" vertex="1" parent="WIyWlLk6GJQsqaUBKTNV-1">
          <mxGeometry x="864" width="120" height="30" as="geometry" />
        </mxCell>
        <mxCell id="QHe8dvAFQJgyMEftRluh-101" value="" style="edgeStyle=orthogonalEdgeStyle;rounded=0;orthogonalLoop=1;jettySize=auto;html=1;entryX=0.011;entryY=0.136;entryDx=0;entryDy=0;entryPerimeter=0;" edge="1" parent="WIyWlLk6GJQsqaUBKTNV-1" source="QHe8dvAFQJgyMEftRluh-64" target="QHe8dvAFQJgyMEftRluh-94">
          <mxGeometry relative="1" as="geometry" />
        </mxCell>
        <mxCell id="QHe8dvAFQJgyMEftRluh-64" value="메인 화면" style="shape=table;startSize=30;container=1;collapsible=0;childLayout=tableLayout;fixedRows=1;rowLines=0;fontStyle=0;strokeColor=default;fontSize=16;" vertex="1" parent="WIyWlLk6GJQsqaUBKTNV-1">
          <mxGeometry x="854" y="51" width="180" height="90" as="geometry" />
        </mxCell>
        <mxCell id="QHe8dvAFQJgyMEftRluh-65" value="" style="shape=tableRow;horizontal=0;startSize=0;swimlaneHead=0;swimlaneBody=0;top=0;left=0;bottom=0;right=0;collapsible=0;dropTarget=0;fillColor=none;points=[[0,0.5],[1,0.5]];portConstraint=eastwest;strokeColor=inherit;fontSize=16;" vertex="1" parent="QHe8dvAFQJgyMEftRluh-64">
          <mxGeometry y="30" width="180" height="30" as="geometry" />
        </mxCell>
        <mxCell id="QHe8dvAFQJgyMEftRluh-66" value="1" style="shape=partialRectangle;html=1;whiteSpace=wrap;connectable=0;fillColor=none;top=0;left=0;bottom=0;right=0;overflow=hidden;pointerEvents=1;strokeColor=inherit;fontSize=16;" vertex="1" parent="QHe8dvAFQJgyMEftRluh-65">
          <mxGeometry width="40" height="30" as="geometry">
            <mxRectangle width="40" height="30" as="alternateBounds" />
          </mxGeometry>
        </mxCell>
        <mxCell id="QHe8dvAFQJgyMEftRluh-67" value="게임 시작" style="shape=partialRectangle;html=1;whiteSpace=wrap;connectable=0;fillColor=none;top=0;left=0;bottom=0;right=0;align=left;spacingLeft=6;overflow=hidden;strokeColor=inherit;fontSize=16;" vertex="1" parent="QHe8dvAFQJgyMEftRluh-65">
          <mxGeometry x="40" width="140" height="30" as="geometry">
            <mxRectangle width="140" height="30" as="alternateBounds" />
          </mxGeometry>
        </mxCell>
        <mxCell id="QHe8dvAFQJgyMEftRluh-68" value="" style="shape=tableRow;horizontal=0;startSize=0;swimlaneHead=0;swimlaneBody=0;top=0;left=0;bottom=0;right=0;collapsible=0;dropTarget=0;fillColor=none;points=[[0,0.5],[1,0.5]];portConstraint=eastwest;strokeColor=inherit;fontSize=16;" vertex="1" parent="QHe8dvAFQJgyMEftRluh-64">
          <mxGeometry y="60" width="180" height="30" as="geometry" />
        </mxCell>
        <mxCell id="QHe8dvAFQJgyMEftRluh-69" value="2" style="shape=partialRectangle;html=1;whiteSpace=wrap;connectable=0;fillColor=none;top=0;left=0;bottom=0;right=0;overflow=hidden;strokeColor=inherit;fontSize=16;" vertex="1" parent="QHe8dvAFQJgyMEftRluh-68">
          <mxGeometry width="40" height="30" as="geometry">
            <mxRectangle width="40" height="30" as="alternateBounds" />
          </mxGeometry>
        </mxCell>
        <mxCell id="QHe8dvAFQJgyMEftRluh-70" value="환경 설정" style="shape=partialRectangle;html=1;whiteSpace=wrap;connectable=0;fillColor=none;top=0;left=0;bottom=0;right=0;align=left;spacingLeft=6;overflow=hidden;strokeColor=inherit;fontSize=16;" vertex="1" parent="QHe8dvAFQJgyMEftRluh-68">
          <mxGeometry x="40" width="140" height="30" as="geometry">
            <mxRectangle width="140" height="30" as="alternateBounds" />
          </mxGeometry>
        </mxCell>
        <mxCell id="QHe8dvAFQJgyMEftRluh-109" value="" style="edgeStyle=orthogonalEdgeStyle;rounded=0;orthogonalLoop=1;jettySize=auto;html=1;entryX=0.01;entryY=0.066;entryDx=0;entryDy=0;entryPerimeter=0;" edge="1" parent="WIyWlLk6GJQsqaUBKTNV-1" source="QHe8dvAFQJgyMEftRluh-94" target="QHe8dvAFQJgyMEftRluh-200">
          <mxGeometry relative="1" as="geometry">
            <mxPoint x="1450" y="59.79099999999994" as="targetPoint" />
          </mxGeometry>
        </mxCell>
        <mxCell id="QHe8dvAFQJgyMEftRluh-94" value="로비" style="shape=table;startSize=29;container=1;collapsible=0;childLayout=tableLayout;fixedRows=1;rowLines=0;fontStyle=0;strokeColor=default;fontSize=16;" vertex="1" parent="WIyWlLk6GJQsqaUBKTNV-1">
          <mxGeometry x="1114" y="51" width="180" height="90" as="geometry" />
        </mxCell>
        <mxCell id="QHe8dvAFQJgyMEftRluh-95" value="" style="shape=tableRow;horizontal=0;startSize=0;swimlaneHead=0;swimlaneBody=0;top=0;left=0;bottom=0;right=0;collapsible=0;dropTarget=0;fillColor=none;points=[[0,0.5],[1,0.5]];portConstraint=eastwest;strokeColor=inherit;fontSize=16;" vertex="1" parent="QHe8dvAFQJgyMEftRluh-94">
          <mxGeometry y="29" width="180" height="30" as="geometry" />
        </mxCell>
        <mxCell id="QHe8dvAFQJgyMEftRluh-96" value="1" style="shape=partialRectangle;html=1;whiteSpace=wrap;connectable=0;fillColor=none;top=0;left=0;bottom=0;right=0;overflow=hidden;pointerEvents=1;strokeColor=inherit;fontSize=16;" vertex="1" parent="QHe8dvAFQJgyMEftRluh-95">
          <mxGeometry width="40" height="30" as="geometry">
            <mxRectangle width="40" height="30" as="alternateBounds" />
          </mxGeometry>
        </mxCell>
        <mxCell id="QHe8dvAFQJgyMEftRluh-97" value="게임 시작" style="shape=partialRectangle;html=1;whiteSpace=wrap;connectable=0;fillColor=none;top=0;left=0;bottom=0;right=0;align=left;spacingLeft=6;overflow=hidden;strokeColor=inherit;fontSize=16;" vertex="1" parent="QHe8dvAFQJgyMEftRluh-95">
          <mxGeometry x="40" width="140" height="30" as="geometry">
            <mxRectangle width="140" height="30" as="alternateBounds" />
          </mxGeometry>
        </mxCell>
        <mxCell id="QHe8dvAFQJgyMEftRluh-98" value="" style="shape=tableRow;horizontal=0;startSize=0;swimlaneHead=0;swimlaneBody=0;top=0;left=0;bottom=0;right=0;collapsible=0;dropTarget=0;fillColor=none;points=[[0,0.5],[1,0.5]];portConstraint=eastwest;strokeColor=inherit;fontSize=16;" vertex="1" parent="QHe8dvAFQJgyMEftRluh-94">
          <mxGeometry y="59" width="180" height="30" as="geometry" />
        </mxCell>
        <mxCell id="QHe8dvAFQJgyMEftRluh-99" value="2" style="shape=partialRectangle;html=1;whiteSpace=wrap;connectable=0;fillColor=none;top=0;left=0;bottom=0;right=0;overflow=hidden;strokeColor=inherit;fontSize=16;" vertex="1" parent="QHe8dvAFQJgyMEftRluh-98">
          <mxGeometry width="40" height="30" as="geometry">
            <mxRectangle width="40" height="30" as="alternateBounds" />
          </mxGeometry>
        </mxCell>
        <mxCell id="QHe8dvAFQJgyMEftRluh-100" value="캐릭터 선택" style="shape=partialRectangle;html=1;whiteSpace=wrap;connectable=0;fillColor=none;top=0;left=0;bottom=0;right=0;align=left;spacingLeft=6;overflow=hidden;strokeColor=inherit;fontSize=16;" vertex="1" parent="QHe8dvAFQJgyMEftRluh-98">
          <mxGeometry x="40" width="140" height="30" as="geometry">
            <mxRectangle width="140" height="30" as="alternateBounds" />
          </mxGeometry>
        </mxCell>
        <mxCell id="QHe8dvAFQJgyMEftRluh-121" value="환경 설정" style="shape=table;startSize=30;container=1;collapsible=0;childLayout=tableLayout;fixedRows=1;rowLines=0;fontStyle=0;strokeColor=default;fontSize=16;" vertex="1" parent="WIyWlLk6GJQsqaUBKTNV-1">
          <mxGeometry x="854" y="194" width="180" height="96" as="geometry" />
        </mxCell>
        <mxCell id="QHe8dvAFQJgyMEftRluh-122" value="" style="shape=tableRow;horizontal=0;startSize=0;swimlaneHead=0;swimlaneBody=0;top=0;left=0;bottom=0;right=0;collapsible=0;dropTarget=0;fillColor=none;points=[[0,0.5],[1,0.5]];portConstraint=eastwest;strokeColor=inherit;fontSize=16;" vertex="1" parent="QHe8dvAFQJgyMEftRluh-121">
          <mxGeometry y="30" width="180" height="30" as="geometry" />
        </mxCell>
        <mxCell id="QHe8dvAFQJgyMEftRluh-123" value="1" style="shape=partialRectangle;html=1;whiteSpace=wrap;connectable=0;fillColor=none;top=0;left=0;bottom=0;right=0;overflow=hidden;pointerEvents=1;strokeColor=inherit;fontSize=16;" vertex="1" parent="QHe8dvAFQJgyMEftRluh-122">
          <mxGeometry width="40" height="30" as="geometry">
            <mxRectangle width="40" height="30" as="alternateBounds" />
          </mxGeometry>
        </mxCell>
        <mxCell id="QHe8dvAFQJgyMEftRluh-124" value="해상도" style="shape=partialRectangle;html=1;whiteSpace=wrap;connectable=0;fillColor=none;top=0;left=0;bottom=0;right=0;align=left;spacingLeft=6;overflow=hidden;strokeColor=inherit;fontSize=16;" vertex="1" parent="QHe8dvAFQJgyMEftRluh-122">
          <mxGeometry x="40" width="140" height="30" as="geometry">
            <mxRectangle width="140" height="30" as="alternateBounds" />
          </mxGeometry>
        </mxCell>
        <mxCell id="QHe8dvAFQJgyMEftRluh-125" value="" style="shape=tableRow;horizontal=0;startSize=0;swimlaneHead=0;swimlaneBody=0;top=0;left=0;bottom=0;right=0;collapsible=0;dropTarget=0;fillColor=none;points=[[0,0.5],[1,0.5]];portConstraint=eastwest;strokeColor=inherit;fontSize=16;" vertex="1" parent="QHe8dvAFQJgyMEftRluh-121">
          <mxGeometry y="60" width="180" height="36" as="geometry" />
        </mxCell>
        <mxCell id="QHe8dvAFQJgyMEftRluh-126" value="2" style="shape=partialRectangle;html=1;whiteSpace=wrap;connectable=0;fillColor=none;top=0;left=0;bottom=0;right=0;overflow=hidden;strokeColor=inherit;fontSize=16;" vertex="1" parent="QHe8dvAFQJgyMEftRluh-125">
          <mxGeometry width="40" height="36" as="geometry">
            <mxRectangle width="40" height="36" as="alternateBounds" />
          </mxGeometry>
        </mxCell>
        <mxCell id="QHe8dvAFQJgyMEftRluh-127" value="사운드" style="shape=partialRectangle;html=1;whiteSpace=wrap;connectable=0;fillColor=none;top=0;left=0;bottom=0;right=0;align=left;spacingLeft=6;overflow=hidden;strokeColor=inherit;fontSize=16;" vertex="1" parent="QHe8dvAFQJgyMEftRluh-125">
          <mxGeometry x="40" width="140" height="36" as="geometry">
            <mxRectangle width="140" height="36" as="alternateBounds" />
          </mxGeometry>
        </mxCell>
        <mxCell id="QHe8dvAFQJgyMEftRluh-153" value="캐릭터 선택" style="shape=table;startSize=30;container=1;collapsible=0;childLayout=tableLayout;fixedRows=1;rowLines=0;fontStyle=0;strokeColor=default;fontSize=16;" vertex="1" parent="WIyWlLk6GJQsqaUBKTNV-1">
          <mxGeometry x="1080" y="434" width="180" height="150" as="geometry" />
        </mxCell>
        <mxCell id="QHe8dvAFQJgyMEftRluh-154" value="" style="shape=tableRow;horizontal=0;startSize=0;swimlaneHead=0;swimlaneBody=0;top=0;left=0;bottom=0;right=0;collapsible=0;dropTarget=0;fillColor=none;points=[[0,0.5],[1,0.5]];portConstraint=eastwest;strokeColor=inherit;fontSize=16;" vertex="1" parent="QHe8dvAFQJgyMEftRluh-153">
          <mxGeometry y="30" width="180" height="30" as="geometry" />
        </mxCell>
        <mxCell id="QHe8dvAFQJgyMEftRluh-155" value="1" style="shape=partialRectangle;html=1;whiteSpace=wrap;connectable=0;fillColor=none;top=0;left=0;bottom=0;right=0;overflow=hidden;pointerEvents=1;strokeColor=inherit;fontSize=16;" vertex="1" parent="QHe8dvAFQJgyMEftRluh-154">
          <mxGeometry width="40" height="30" as="geometry">
            <mxRectangle width="40" height="30" as="alternateBounds" />
          </mxGeometry>
        </mxCell>
        <mxCell id="QHe8dvAFQJgyMEftRluh-156" value="지휘관" style="shape=partialRectangle;html=1;whiteSpace=wrap;connectable=0;fillColor=none;top=0;left=0;bottom=0;right=0;align=left;spacingLeft=6;overflow=hidden;strokeColor=inherit;fontSize=16;" vertex="1" parent="QHe8dvAFQJgyMEftRluh-154">
          <mxGeometry x="40" width="140" height="30" as="geometry">
            <mxRectangle width="140" height="30" as="alternateBounds" />
          </mxGeometry>
        </mxCell>
        <mxCell id="QHe8dvAFQJgyMEftRluh-157" value="" style="shape=tableRow;horizontal=0;startSize=0;swimlaneHead=0;swimlaneBody=0;top=0;left=0;bottom=0;right=0;collapsible=0;dropTarget=0;fillColor=none;points=[[0,0.5],[1,0.5]];portConstraint=eastwest;strokeColor=inherit;fontSize=16;" vertex="1" parent="QHe8dvAFQJgyMEftRluh-153">
          <mxGeometry y="60" width="180" height="30" as="geometry" />
        </mxCell>
        <mxCell id="QHe8dvAFQJgyMEftRluh-158" value="2" style="shape=partialRectangle;html=1;whiteSpace=wrap;connectable=0;fillColor=none;top=0;left=0;bottom=0;right=0;overflow=hidden;strokeColor=inherit;fontSize=16;" vertex="1" parent="QHe8dvAFQJgyMEftRluh-157">
          <mxGeometry width="40" height="30" as="geometry">
            <mxRectangle width="40" height="30" as="alternateBounds" />
          </mxGeometry>
        </mxCell>
        <mxCell id="QHe8dvAFQJgyMEftRluh-159" value="소환술사" style="shape=partialRectangle;html=1;whiteSpace=wrap;connectable=0;fillColor=none;top=0;left=0;bottom=0;right=0;align=left;spacingLeft=6;overflow=hidden;strokeColor=inherit;fontSize=16;" vertex="1" parent="QHe8dvAFQJgyMEftRluh-157">
          <mxGeometry x="40" width="140" height="30" as="geometry">
            <mxRectangle width="140" height="30" as="alternateBounds" />
          </mxGeometry>
        </mxCell>
        <mxCell id="QHe8dvAFQJgyMEftRluh-160" value="" style="shape=tableRow;horizontal=0;startSize=0;swimlaneHead=0;swimlaneBody=0;top=0;left=0;bottom=0;right=0;collapsible=0;dropTarget=0;fillColor=none;points=[[0,0.5],[1,0.5]];portConstraint=eastwest;strokeColor=inherit;fontSize=16;" vertex="1" parent="QHe8dvAFQJgyMEftRluh-153">
          <mxGeometry y="90" width="180" height="30" as="geometry" />
        </mxCell>
        <mxCell id="QHe8dvAFQJgyMEftRluh-161" value="3" style="shape=partialRectangle;html=1;whiteSpace=wrap;connectable=0;fillColor=none;top=0;left=0;bottom=0;right=0;overflow=hidden;strokeColor=inherit;fontSize=16;" vertex="1" parent="QHe8dvAFQJgyMEftRluh-160">
          <mxGeometry width="40" height="30" as="geometry">
            <mxRectangle width="40" height="30" as="alternateBounds" />
          </mxGeometry>
        </mxCell>
        <mxCell id="QHe8dvAFQJgyMEftRluh-162" value="광전사" style="shape=partialRectangle;html=1;whiteSpace=wrap;connectable=0;fillColor=none;top=0;left=0;bottom=0;right=0;align=left;spacingLeft=6;overflow=hidden;strokeColor=inherit;fontSize=16;" vertex="1" parent="QHe8dvAFQJgyMEftRluh-160">
          <mxGeometry x="40" width="140" height="30" as="geometry">
            <mxRectangle width="140" height="30" as="alternateBounds" />
          </mxGeometry>
        </mxCell>
        <mxCell id="QHe8dvAFQJgyMEftRluh-197" value="" style="shape=tableRow;horizontal=0;startSize=0;swimlaneHead=0;swimlaneBody=0;top=0;left=0;bottom=0;right=0;collapsible=0;dropTarget=0;fillColor=none;points=[[0,0.5],[1,0.5]];portConstraint=eastwest;strokeColor=inherit;fontSize=16;" vertex="1" parent="QHe8dvAFQJgyMEftRluh-153">
          <mxGeometry y="120" width="180" height="30" as="geometry" />
        </mxCell>
        <mxCell id="QHe8dvAFQJgyMEftRluh-198" value="4" style="shape=partialRectangle;html=1;whiteSpace=wrap;connectable=0;fillColor=none;top=0;left=0;bottom=0;right=0;overflow=hidden;strokeColor=inherit;fontSize=16;" vertex="1" parent="QHe8dvAFQJgyMEftRluh-197">
          <mxGeometry width="40" height="30" as="geometry">
            <mxRectangle width="40" height="30" as="alternateBounds" />
          </mxGeometry>
        </mxCell>
        <mxCell id="QHe8dvAFQJgyMEftRluh-199" value="기계공학(나중에)" style="shape=partialRectangle;html=1;whiteSpace=wrap;connectable=0;fillColor=none;top=0;left=0;bottom=0;right=0;align=left;spacingLeft=6;overflow=hidden;strokeColor=inherit;fontSize=16;" vertex="1" parent="QHe8dvAFQJgyMEftRluh-197">
          <mxGeometry x="40" width="140" height="30" as="geometry">
            <mxRectangle width="140" height="30" as="alternateBounds" />
          </mxGeometry>
        </mxCell>
        <mxCell id="QHe8dvAFQJgyMEftRluh-164" style="edgeStyle=orthogonalEdgeStyle;rounded=0;orthogonalLoop=1;jettySize=auto;html=1;entryX=0.5;entryY=0;entryDx=0;entryDy=0;" edge="1" parent="WIyWlLk6GJQsqaUBKTNV-1" source="QHe8dvAFQJgyMEftRluh-68" target="QHe8dvAFQJgyMEftRluh-121">
          <mxGeometry relative="1" as="geometry" />
        </mxCell>
        <mxCell id="QHe8dvAFQJgyMEftRluh-166" value="플랫폼 : 미정" style="rounded=0;whiteSpace=wrap;html=1;" vertex="1" parent="WIyWlLk6GJQsqaUBKTNV-1">
          <mxGeometry x="1008" width="120" height="30" as="geometry" />
        </mxCell>
        <mxCell id="QHe8dvAFQJgyMEftRluh-167" value="게임 방식" style="swimlane;whiteSpace=wrap;html=1;startSize=29;" vertex="1" parent="WIyWlLk6GJQsqaUBKTNV-1">
          <mxGeometry x="600" width="200" height="200" as="geometry" />
        </mxCell>
        <mxCell id="QHe8dvAFQJgyMEftRluh-174" value="플레이어가 카드를 필드에 배치하면, 던전에 있는 몬스터들과 자동으로 전투가 진행되는 전략형 오토배틀러 게임" style="shape=table;startSize=0;container=1;collapsible=0;childLayout=tableLayout;fontSize=16;fillColor=none;strokeColor=none;whiteSpace=wrap;fontStyle=1" vertex="1" parent="QHe8dvAFQJgyMEftRluh-167">
          <mxGeometry y="30" width="200" height="170" as="geometry" />
        </mxCell>
        <mxCell id="QHe8dvAFQJgyMEftRluh-175" value="게임 룰" style="swimlane;whiteSpace=wrap;html=1;startSize=29;" vertex="1" parent="WIyWlLk6GJQsqaUBKTNV-1">
          <mxGeometry x="310" width="250" height="270" as="geometry" />
        </mxCell>
        <mxCell id="QHe8dvAFQJgyMEftRluh-176" value="각 카드에는 고유한 코스트가 있으며, 플레이어는 제한된 코스트를 가지고 게임을 시작합니다. 코스트는 필드에 있는 모든 몬스터를 처치하면 회복됩니다. 플레이어는 제한된 코스트 내에서 아이템 사용 카드를 필드에 소환할 수 있으며, 아이템은 전투가 시작되기 전에만 사용할 수 있습니다" style="shape=table;startSize=0;container=1;collapsible=0;childLayout=tableLayout;fontSize=16;fillColor=none;strokeColor=none;whiteSpace=wrap;fontStyle=1" vertex="1" parent="QHe8dvAFQJgyMEftRluh-175">
          <mxGeometry y="30" width="250" height="240" as="geometry" />
        </mxCell>
        <mxCell id="QHe8dvAFQJgyMEftRluh-183" style="edgeStyle=orthogonalEdgeStyle;rounded=0;orthogonalLoop=1;jettySize=auto;html=1;exitX=0.5;exitY=1;exitDx=0;exitDy=0;entryX=0.5;entryY=0;entryDx=0;entryDy=0;" edge="1" parent="WIyWlLk6GJQsqaUBKTNV-1" source="QHe8dvAFQJgyMEftRluh-177" target="QHe8dvAFQJgyMEftRluh-153">
          <mxGeometry relative="1" as="geometry" />
        </mxCell>
        <mxCell id="QHe8dvAFQJgyMEftRluh-177" value="캐릭터 선택 설명" style="swimlane;whiteSpace=wrap;html=1;" vertex="1" parent="WIyWlLk6GJQsqaUBKTNV-1">
          <mxGeometry x="1080" y="254" width="172" height="150" as="geometry" />
        </mxCell>
        <mxCell id="QHe8dvAFQJgyMEftRluh-178" value="각 캐릭터는 고유한 능력을 가지고 있으며, 이를 활용해 다양한 방식으로 덱을 구성할 수 있다" style="shape=table;startSize=0;container=1;collapsible=0;childLayout=tableLayout;fontSize=16;fillColor=none;strokeColor=none;whiteSpace=wrap;fontStyle=1" vertex="1" parent="QHe8dvAFQJgyMEftRluh-177">
          <mxGeometry y="23" width="170" height="127" as="geometry" />
        </mxCell>
        <mxCell id="QHe8dvAFQJgyMEftRluh-184" value="지휘관" style="swimlane;whiteSpace=wrap;html=1;" vertex="1" parent="WIyWlLk6GJQsqaUBKTNV-1">
          <mxGeometry x="640" y="320" width="172" height="150" as="geometry" />
        </mxCell>
        <mxCell id="QHe8dvAFQJgyMEftRluh-185" value="필드에 있는 유닛들의 모든 스탯을 50씩 증가시킨다" style="shape=table;startSize=0;container=1;collapsible=0;childLayout=tableLayout;fontSize=16;fillColor=none;strokeColor=none;whiteSpace=wrap;fontStyle=1" vertex="1" parent="QHe8dvAFQJgyMEftRluh-184">
          <mxGeometry y="23" width="170" height="127" as="geometry" />
        </mxCell>
        <mxCell id="QHe8dvAFQJgyMEftRluh-186" style="edgeStyle=orthogonalEdgeStyle;rounded=0;orthogonalLoop=1;jettySize=auto;html=1;exitX=0;exitY=0.5;exitDx=0;exitDy=0;entryX=0.5;entryY=0;entryDx=0;entryDy=0;" edge="1" parent="WIyWlLk6GJQsqaUBKTNV-1" source="QHe8dvAFQJgyMEftRluh-98" target="QHe8dvAFQJgyMEftRluh-177">
          <mxGeometry relative="1" as="geometry" />
        </mxCell>
        <mxCell id="QHe8dvAFQJgyMEftRluh-190" style="edgeStyle=orthogonalEdgeStyle;rounded=0;orthogonalLoop=1;jettySize=auto;html=1;exitX=0;exitY=0.5;exitDx=0;exitDy=0;entryX=1.006;entryY=0.062;entryDx=0;entryDy=0;entryPerimeter=0;" edge="1" parent="WIyWlLk6GJQsqaUBKTNV-1" source="QHe8dvAFQJgyMEftRluh-154" target="QHe8dvAFQJgyMEftRluh-184">
          <mxGeometry relative="1" as="geometry" />
        </mxCell>
        <mxCell id="QHe8dvAFQJgyMEftRluh-191" value="광전사" style="swimlane;whiteSpace=wrap;html=1;" vertex="1" parent="WIyWlLk6GJQsqaUBKTNV-1">
          <mxGeometry x="640" y="670" width="172" height="150" as="geometry" />
        </mxCell>
        <mxCell id="QHe8dvAFQJgyMEftRluh-192" value="필드 1칸이 무작위로 &#39;강화 필드&#39;가 생성되며, 해당 칸에 배치된 유닛은 공격 속도 증가, 생명력 흡수 강화 효과를 얻는다" style="shape=table;startSize=0;container=1;collapsible=0;childLayout=tableLayout;fontSize=16;fillColor=none;strokeColor=none;whiteSpace=wrap;fontStyle=1" vertex="1" parent="QHe8dvAFQJgyMEftRluh-191">
          <mxGeometry y="23" width="170" height="127" as="geometry" />
        </mxCell>
        <mxCell id="QHe8dvAFQJgyMEftRluh-193" value="소환술사" style="swimlane;whiteSpace=wrap;html=1;" vertex="1" parent="WIyWlLk6GJQsqaUBKTNV-1">
          <mxGeometry x="640" y="499" width="172" height="150" as="geometry" />
        </mxCell>
        <mxCell id="QHe8dvAFQJgyMEftRluh-194" value="플레이어의 기본 코스트가 증가한다" style="shape=table;startSize=0;container=1;collapsible=0;childLayout=tableLayout;fontSize=16;fillColor=none;strokeColor=none;whiteSpace=wrap;fontStyle=1" vertex="1" parent="QHe8dvAFQJgyMEftRluh-193">
          <mxGeometry y="23" width="170" height="127" as="geometry" />
        </mxCell>
        <mxCell id="QHe8dvAFQJgyMEftRluh-195" style="edgeStyle=orthogonalEdgeStyle;rounded=0;orthogonalLoop=1;jettySize=auto;html=1;exitX=0;exitY=0.5;exitDx=0;exitDy=0;entryX=1;entryY=0.068;entryDx=0;entryDy=0;entryPerimeter=0;" edge="1" parent="WIyWlLk6GJQsqaUBKTNV-1" source="QHe8dvAFQJgyMEftRluh-157" target="QHe8dvAFQJgyMEftRluh-193">
          <mxGeometry relative="1" as="geometry" />
        </mxCell>
        <mxCell id="QHe8dvAFQJgyMEftRluh-196" style="edgeStyle=orthogonalEdgeStyle;rounded=0;orthogonalLoop=1;jettySize=auto;html=1;exitX=0;exitY=0.5;exitDx=0;exitDy=0;entryX=1.006;entryY=0.062;entryDx=0;entryDy=0;entryPerimeter=0;" edge="1" parent="WIyWlLk6GJQsqaUBKTNV-1" source="QHe8dvAFQJgyMEftRluh-160" target="QHe8dvAFQJgyMEftRluh-191">
          <mxGeometry relative="1" as="geometry" />
        </mxCell>
        <mxCell id="QHe8dvAFQJgyMEftRluh-200" value="게임 진행 방식" style="swimlane;whiteSpace=wrap;html=1;" vertex="1" parent="WIyWlLk6GJQsqaUBKTNV-1">
          <mxGeometry x="1440" y="51" width="210" height="229" as="geometry" />
        </mxCell>
        <mxCell id="QHe8dvAFQJgyMEftRluh-203" value="게임 진행 방식은 던전을 내려가는 형태로, 각 층마다 지도를 보여줘서 지도를 이용한 이동. 한 번 이동한 뒤에는 다시 돌아갈 수 없고, 이동 경로 중간 중간에는 상점이나 보물상자 등의 이벤트가 있어, 플레이어는 이를 통해 아이템을 얻거나 강화할 수 있습니다." style="shape=table;startSize=0;container=1;collapsible=0;childLayout=tableLayout;fontSize=15;fillColor=none;strokeColor=none;whiteSpace=wrap;" vertex="1" parent="QHe8dvAFQJgyMEftRluh-200">
          <mxGeometry y="29" width="210" height="201" as="geometry" />
        </mxCell>
        <mxCell id="QHe8dvAFQJgyMEftRluh-214" value="이벤트" style="shape=table;startSize=30;container=1;collapsible=0;childLayout=tableLayout;fixedRows=1;rowLines=0;fontStyle=0;strokeColor=default;fontSize=16;" vertex="1" parent="WIyWlLk6GJQsqaUBKTNV-1">
          <mxGeometry x="1740" y="51" width="230" height="210" as="geometry" />
        </mxCell>
        <mxCell id="QHe8dvAFQJgyMEftRluh-215" value="" style="shape=tableRow;horizontal=0;startSize=0;swimlaneHead=0;swimlaneBody=0;top=0;left=0;bottom=0;right=0;collapsible=0;dropTarget=0;fillColor=none;points=[[0,0.5],[1,0.5]];portConstraint=eastwest;strokeColor=inherit;fontSize=16;" vertex="1" parent="QHe8dvAFQJgyMEftRluh-214">
          <mxGeometry y="30" width="230" height="60" as="geometry" />
        </mxCell>
        <mxCell id="QHe8dvAFQJgyMEftRluh-216" value="상점" style="shape=partialRectangle;html=1;whiteSpace=wrap;connectable=0;fillColor=#f5f5f5;top=0;left=0;bottom=0;right=0;overflow=hidden;pointerEvents=1;strokeColor=#666666;fontSize=16;fontColor=#333333;" vertex="1" parent="QHe8dvAFQJgyMEftRluh-215">
          <mxGeometry width="77" height="60" as="geometry">
            <mxRectangle width="77" height="60" as="alternateBounds" />
          </mxGeometry>
        </mxCell>
        <mxCell id="QHe8dvAFQJgyMEftRluh-217" value="상점에서 사고 팔 수 있다" style="shape=partialRectangle;html=1;whiteSpace=wrap;connectable=0;fillColor=#f5f5f5;top=0;left=0;bottom=0;right=0;align=left;spacingLeft=6;overflow=hidden;strokeColor=#666666;fontSize=16;fontColor=#333333;" vertex="1" parent="QHe8dvAFQJgyMEftRluh-215">
          <mxGeometry x="77" width="153" height="60" as="geometry">
            <mxRectangle width="153" height="60" as="alternateBounds" />
          </mxGeometry>
        </mxCell>
        <mxCell id="QHe8dvAFQJgyMEftRluh-218" value="" style="shape=tableRow;horizontal=0;startSize=0;swimlaneHead=0;swimlaneBody=0;top=0;left=0;bottom=0;right=0;collapsible=0;dropTarget=0;fillColor=none;points=[[0,0.5],[1,0.5]];portConstraint=eastwest;strokeColor=inherit;fontSize=16;" vertex="1" parent="QHe8dvAFQJgyMEftRluh-214">
          <mxGeometry y="90" width="230" height="60" as="geometry" />
        </mxCell>
        <mxCell id="QHe8dvAFQJgyMEftRluh-219" value="보물상자" style="shape=partialRectangle;html=1;whiteSpace=wrap;connectable=0;top=0;left=0;bottom=0;right=0;overflow=hidden;fontSize=16;fillColor=#dae8fc;strokeColor=#6c8ebf;" vertex="1" parent="QHe8dvAFQJgyMEftRluh-218">
          <mxGeometry width="77" height="60" as="geometry">
            <mxRectangle width="77" height="60" as="alternateBounds" />
          </mxGeometry>
        </mxCell>
        <mxCell id="QHe8dvAFQJgyMEftRluh-220" value="Value 2" style="shape=partialRectangle;html=1;whiteSpace=wrap;connectable=0;fillColor=#dae8fc;top=0;left=0;bottom=0;right=0;align=left;spacingLeft=6;overflow=hidden;strokeColor=#6c8ebf;fontSize=16;" vertex="1" parent="QHe8dvAFQJgyMEftRluh-218">
          <mxGeometry x="77" width="153" height="60" as="geometry">
            <mxRectangle width="153" height="60" as="alternateBounds" />
          </mxGeometry>
        </mxCell>
        <mxCell id="QHe8dvAFQJgyMEftRluh-221" value="" style="shape=tableRow;horizontal=0;startSize=0;swimlaneHead=0;swimlaneBody=0;top=0;left=0;bottom=0;right=0;collapsible=0;dropTarget=0;fillColor=none;points=[[0,0.5],[1,0.5]];portConstraint=eastwest;strokeColor=inherit;fontSize=16;" vertex="1" parent="QHe8dvAFQJgyMEftRluh-214">
          <mxGeometry y="150" width="230" height="60" as="geometry" />
        </mxCell>
        <mxCell id="QHe8dvAFQJgyMEftRluh-222" value="분수" style="shape=partialRectangle;html=1;whiteSpace=wrap;connectable=0;fillColor=#d5e8d4;top=0;left=0;bottom=0;right=0;overflow=hidden;strokeColor=#82b366;fontSize=16;" vertex="1" parent="QHe8dvAFQJgyMEftRluh-221">
          <mxGeometry width="77" height="60" as="geometry">
            <mxRectangle width="77" height="60" as="alternateBounds" />
          </mxGeometry>
        </mxCell>
        <mxCell id="QHe8dvAFQJgyMEftRluh-223" value="Value 3" style="shape=partialRectangle;html=1;whiteSpace=wrap;connectable=0;fillColor=#d5e8d4;top=0;left=0;bottom=0;right=0;align=left;spacingLeft=6;overflow=hidden;strokeColor=#82b366;fontSize=16;" vertex="1" parent="QHe8dvAFQJgyMEftRluh-221">
          <mxGeometry x="77" width="153" height="60" as="geometry">
            <mxRectangle width="153" height="60" as="alternateBounds" />
          </mxGeometry>
        </mxCell>
        <mxCell id="QHe8dvAFQJgyMEftRluh-224" style="edgeStyle=orthogonalEdgeStyle;rounded=0;orthogonalLoop=1;jettySize=auto;html=1;exitX=1;exitY=0.25;exitDx=0;exitDy=0;entryX=-0.011;entryY=0.135;entryDx=0;entryDy=0;entryPerimeter=0;" edge="1" parent="WIyWlLk6GJQsqaUBKTNV-1" source="QHe8dvAFQJgyMEftRluh-203" target="QHe8dvAFQJgyMEftRluh-214">
          <mxGeometry relative="1" as="geometry" />
        </mxCell>
      </root>
    </mxGraphModel>
  </diagram>
</mxfile>
